<svg xmlns="http://www.w3.org/2000/svg" xmlns:xlink="http://www.w3.org/1999/xlink" width="500" zoomAndPan="magnify" viewBox="0 0 375 374.999991" height="500" preserveAspectRatio="xMidYMid meet" version="1.0"><defs><g/><clipPath id="0635274228"><path d="M 58.804688 104.679688 L 130.804688 104.679688 L 130.804688 187.179688 L 58.804688 187.179688 Z M 58.804688 104.679688 " clip-rule="nonzero"/></clipPath><clipPath id="80debfe78b"><path d="M 94 166 L 130.804688 166 L 130.804688 187.179688 L 94 187.179688 Z M 94 166 " clip-rule="nonzero"/></clipPath><clipPath id="04ff3da05b"><path d="M 58.804688 187.183594 L 95.554688 187.183594 L 95.554688 188 L 58.804688 188 Z M 58.804688 187.183594 " clip-rule="nonzero"/></clipPath><clipPath id="073cfda4ab"><path d="M 94 187.183594 L 95.554688 187.183594 L 95.554688 209 L 94 209 Z M 94 187.183594 " clip-rule="nonzero"/></clipPath><clipPath id="64b948a734"><path d="M 58.804688 187.183594 L 95 187.183594 L 95 270.425781 L 58.804688 270.425781 Z M 58.804688 187.183594 " clip-rule="nonzero"/></clipPath><clipPath id="b405e6cca1"><path d="M 93.734375 157.246094 L 133.382812 157.246094 L 133.382812 188 L 93.734375 188 Z M 93.734375 157.246094 " clip-rule="nonzero"/></clipPath><clipPath id="c0531d91e2"><path d="M 93.734375 164 L 133.382812 164 L 133.382812 211 L 93.734375 211 Z M 93.734375 164 " clip-rule="nonzero"/></clipPath><clipPath id="6bf8e33596"><path d="M 93.734375 187 L 94 187 L 94 253.246094 L 93.734375 253.246094 Z M 93.734375 187 " clip-rule="nonzero"/></clipPath></defs><g clip-path="url(#0635274228)"><path fill="#44abb6" d="M 130.464844 125.449219 L 94.628906 104.769531 L 58.804688 125.46875 L 58.816406 166.84375 L 94.652344 187.519531 L 94.640625 146.144531 Z M 130.464844 125.449219 " fill-opacity="1" fill-rule="nonzero"/></g><g clip-path="url(#80debfe78b)"><path fill="#44abb6" d="M 130.476562 166.824219 L 94.652344 187.519531 L 130.492188 208.199219 Z M 130.476562 166.824219 " fill-opacity="1" fill-rule="nonzero"/></g><g clip-path="url(#04ff3da05b)"><path fill="#d9d9d9" d="M 130.464844 125.445312 L 94.628906 104.765625 L 58.804688 125.464844 L 58.816406 166.835938 L 94.652344 187.515625 L 94.640625 146.140625 Z M 130.464844 125.445312 " fill-opacity="1" fill-rule="nonzero"/></g><g clip-path="url(#073cfda4ab)"><path fill="#d9d9d9" d="M 130.476562 166.820312 L 94.652344 187.515625 L 130.492188 208.195312 Z M 130.476562 166.820312 " fill-opacity="1" fill-rule="nonzero"/></g><g clip-path="url(#64b948a734)"><path fill="#d9d9d9" d="M 94.652344 187.515625 L 58.828125 208.210938 L 94.675781 270.261719 L 94.664062 228.890625 Z M 94.652344 187.515625 " fill-opacity="1" fill-rule="nonzero"/></g><g clip-path="url(#b405e6cca1)"><path fill="#ffce2b" d="M 133.386719 118.734375 L 93.628906 95.894531 L 53.882812 118.753906 L 53.894531 164.453125 L 93.652344 187.292969 L 93.640625 141.59375 Z M 133.386719 118.734375 " fill-opacity="1" fill-rule="nonzero"/></g><g clip-path="url(#c0531d91e2)"><path fill="#ffce2b" d="M 133.398438 164.433594 L 93.652344 187.292969 L 133.414062 210.128906 Z M 133.398438 164.433594 " fill-opacity="1" fill-rule="nonzero"/></g><g clip-path="url(#6bf8e33596)"><path fill="#ffce2b" d="M 93.652344 187.292969 L 53.910156 210.152344 L 93.679688 278.683594 L 93.667969 232.988281 Z M 93.652344 187.292969 " fill-opacity="1" fill-rule="nonzero"/></g><g fill="#000000" fill-opacity="1"><g transform="translate(147.851157, 194.526235)"><g><path d="M 14.234375 -19.46875 L 8.65625 -19.46875 L 8.65625 0 L 4.53125 0 L 4.53125 -19.46875 L 0.671875 -19.46875 L 0.671875 -21.46875 L 4.53125 -22.71875 L 4.53125 -24.28125 C 4.53125 -26.1875 4.820312 -27.71875 5.40625 -28.875 C 6 -30.03125 6.847656 -30.875 7.953125 -31.40625 C 9.054688 -31.945312 10.394531 -32.21875 11.96875 -32.21875 C 12.914062 -32.21875 13.78125 -32.132812 14.5625 -31.96875 C 15.351562 -31.800781 16.035156 -31.617188 16.609375 -31.421875 L 15.546875 -28.25 C 15.078125 -28.40625 14.554688 -28.546875 13.984375 -28.671875 C 13.410156 -28.804688 12.800781 -28.875 12.15625 -28.875 C 10.957031 -28.875 10.070312 -28.488281 9.5 -27.71875 C 8.9375 -26.945312 8.65625 -25.785156 8.65625 -24.234375 L 8.65625 -22.65625 L 14.234375 -22.65625 Z M 14.234375 -19.46875 "/></g></g></g><g fill="#000000" fill-opacity="1"><g transform="translate(162.553593, 194.526235)"><g><path d="M 14.40625 -23.0625 C 14.820312 -23.0625 15.269531 -23.035156 15.75 -22.984375 C 16.226562 -22.941406 16.640625 -22.890625 16.984375 -22.828125 L 16.546875 -18.984375 C 16.222656 -19.054688 15.84375 -19.117188 15.40625 -19.171875 C 14.976562 -19.234375 14.578125 -19.265625 14.203125 -19.265625 C 13.328125 -19.265625 12.488281 -19.097656 11.6875 -18.765625 C 10.894531 -18.441406 10.195312 -17.96875 9.59375 -17.34375 C 9 -16.71875 8.53125 -15.957031 8.1875 -15.0625 C 7.84375 -14.164062 7.671875 -13.140625 7.671875 -11.984375 L 7.671875 0 L 3.515625 0 L 3.515625 -22.65625 L 6.84375 -22.65625 L 7.34375 -18.5625 L 7.53125 -18.5625 C 7.988281 -19.382812 8.550781 -20.140625 9.21875 -20.828125 C 9.882812 -21.515625 10.648438 -22.054688 11.515625 -22.453125 C 12.390625 -22.859375 13.351562 -23.0625 14.40625 -23.0625 Z M 14.40625 -23.0625 "/></g></g></g><g fill="#000000" fill-opacity="1"><g transform="translate(180.237642, 194.526235)"><g><path d="M 23.3125 -11.375 C 23.3125 -9.507812 23.066406 -7.84375 22.578125 -6.375 C 22.097656 -4.914062 21.394531 -3.679688 20.46875 -2.671875 C 19.539062 -1.671875 18.425781 -0.90625 17.125 -0.375 C 15.820312 0.144531 14.347656 0.40625 12.703125 0.40625 C 11.171875 0.40625 9.765625 0.144531 8.484375 -0.375 C 7.203125 -0.90625 6.09375 -1.671875 5.15625 -2.671875 C 4.226562 -3.679688 3.507812 -4.914062 3 -6.375 C 2.488281 -7.84375 2.234375 -9.507812 2.234375 -11.375 C 2.234375 -13.851562 2.660156 -15.960938 3.515625 -17.703125 C 4.367188 -19.453125 5.585938 -20.78125 7.171875 -21.6875 C 8.753906 -22.601562 10.640625 -23.0625 12.828125 -23.0625 C 14.910156 -23.0625 16.738281 -22.601562 18.3125 -21.6875 C 19.894531 -20.769531 21.125 -19.441406 22 -17.703125 C 22.875 -15.960938 23.3125 -13.851562 23.3125 -11.375 Z M 6.484375 -11.375 C 6.484375 -9.632812 6.703125 -8.132812 7.140625 -6.875 C 7.585938 -5.625 8.273438 -4.660156 9.203125 -3.984375 C 10.128906 -3.316406 11.328125 -2.984375 12.796875 -2.984375 C 14.234375 -2.984375 15.414062 -3.316406 16.34375 -3.984375 C 17.28125 -4.660156 17.96875 -5.625 18.40625 -6.875 C 18.84375 -8.132812 19.0625 -9.632812 19.0625 -11.375 C 19.0625 -13.101562 18.84375 -14.582031 18.40625 -15.8125 C 17.96875 -17.039062 17.285156 -17.984375 16.359375 -18.640625 C 15.429688 -19.304688 14.226562 -19.640625 12.75 -19.640625 C 10.582031 -19.640625 8.992188 -18.914062 7.984375 -17.46875 C 6.984375 -16.019531 6.484375 -13.988281 6.484375 -11.375 Z M 6.484375 -11.375 "/></g></g></g><g fill="#000000" fill-opacity="1"><g transform="translate(205.756135, 194.526235)"><g><path d="M 14.78125 -23.0625 C 17.394531 -23.0625 19.40625 -22.40625 20.8125 -21.09375 C 22.21875 -19.78125 22.921875 -17.671875 22.921875 -14.765625 L 22.921875 0 L 18.828125 0 L 18.828125 -14.203125 C 18.828125 -16.015625 18.429688 -17.375 17.640625 -18.28125 C 16.847656 -19.195312 15.628906 -19.65625 13.984375 -19.65625 C 11.640625 -19.65625 10 -18.960938 9.0625 -17.578125 C 8.125 -16.191406 7.65625 -14.1875 7.65625 -11.5625 L 7.65625 0 L 3.515625 0 L 3.515625 -22.65625 L 6.78125 -22.65625 L 7.375 -19.46875 L 7.609375 -19.46875 C 8.085938 -20.257812 8.695312 -20.921875 9.4375 -21.453125 C 10.175781 -21.992188 11 -22.394531 11.90625 -22.65625 C 12.820312 -22.925781 13.78125 -23.0625 14.78125 -23.0625 Z M 14.78125 -23.0625 "/></g></g></g><g fill="#000000" fill-opacity="1"><g transform="translate(232.056018, 194.526235)"><g><path d="M 11.40625 -2.9375 C 12 -2.9375 12.597656 -2.988281 13.203125 -3.09375 C 13.804688 -3.195312 14.328125 -3.332031 14.765625 -3.5 L 14.765625 -0.328125 C 14.296875 -0.117188 13.671875 0.0507812 12.890625 0.1875 C 12.117188 0.332031 11.332031 0.40625 10.53125 0.40625 C 9.289062 0.40625 8.171875 0.195312 7.171875 -0.21875 C 6.171875 -0.644531 5.375 -1.375 4.78125 -2.40625 C 4.1875 -3.4375 3.890625 -4.863281 3.890625 -6.6875 L 3.890625 -19.46875 L 0.734375 -19.46875 L 0.734375 -21.390625 L 4.03125 -22.90625 L 5.484375 -27.796875 L 8.046875 -27.796875 L 8.046875 -22.65625 L 14.59375 -22.65625 L 14.59375 -19.46875 L 8.046875 -19.46875 L 8.046875 -6.75 C 8.046875 -5.46875 8.347656 -4.507812 8.953125 -3.875 C 9.566406 -3.25 10.382812 -2.9375 11.40625 -2.9375 Z M 11.40625 -2.9375 "/></g></g></g><g fill="#000000" fill-opacity="1"><g transform="translate(247.88941, 194.526235)"><g><path d="M 12.390625 -23.0625 C 14.367188 -23.0625 16.0625 -22.640625 17.46875 -21.796875 C 18.882812 -20.960938 19.96875 -19.773438 20.71875 -18.234375 C 21.476562 -16.703125 21.859375 -14.894531 21.859375 -12.8125 L 21.859375 -10.46875 L 6.484375 -10.46875 C 6.515625 -8.039062 7.132812 -6.175781 8.34375 -4.875 C 9.550781 -3.582031 11.242188 -2.9375 13.421875 -2.9375 C 14.859375 -2.9375 16.140625 -3.070312 17.265625 -3.34375 C 18.390625 -3.625 19.554688 -4.03125 20.765625 -4.5625 L 20.765625 -1.09375 C 19.628906 -0.570312 18.488281 -0.191406 17.34375 0.046875 C 16.195312 0.285156 14.828125 0.40625 13.234375 0.40625 C 11.046875 0.40625 9.125 -0.03125 7.46875 -0.90625 C 5.820312 -1.78125 4.535156 -3.078125 3.609375 -4.796875 C 2.691406 -6.515625 2.234375 -8.640625 2.234375 -11.171875 C 2.234375 -13.660156 2.648438 -15.789062 3.484375 -17.5625 C 4.328125 -19.34375 5.507812 -20.703125 7.03125 -21.640625 C 8.550781 -22.585938 10.335938 -23.0625 12.390625 -23.0625 Z M 12.375 -19.859375 C 10.707031 -19.859375 9.363281 -19.3125 8.34375 -18.21875 C 7.332031 -17.132812 6.738281 -15.578125 6.5625 -13.546875 L 17.703125 -13.546875 C 17.691406 -14.796875 17.492188 -15.894531 17.109375 -16.84375 C 16.722656 -17.789062 16.140625 -18.53125 15.359375 -19.0625 C 14.585938 -19.59375 13.59375 -19.859375 12.375 -19.859375 Z M 12.375 -19.859375 "/></g></g></g><g fill="#000000" fill-opacity="1"><g transform="translate(271.845128, 194.526235)"><g><path d="M 12.390625 -23.0625 C 14.367188 -23.0625 16.0625 -22.640625 17.46875 -21.796875 C 18.882812 -20.960938 19.96875 -19.773438 20.71875 -18.234375 C 21.476562 -16.703125 21.859375 -14.894531 21.859375 -12.8125 L 21.859375 -10.46875 L 6.484375 -10.46875 C 6.515625 -8.039062 7.132812 -6.175781 8.34375 -4.875 C 9.550781 -3.582031 11.242188 -2.9375 13.421875 -2.9375 C 14.859375 -2.9375 16.140625 -3.070312 17.265625 -3.34375 C 18.390625 -3.625 19.554688 -4.03125 20.765625 -4.5625 L 20.765625 -1.09375 C 19.628906 -0.570312 18.488281 -0.191406 17.34375 0.046875 C 16.195312 0.285156 14.828125 0.40625 13.234375 0.40625 C 11.046875 0.40625 9.125 -0.03125 7.46875 -0.90625 C 5.820312 -1.78125 4.535156 -3.078125 3.609375 -4.796875 C 2.691406 -6.515625 2.234375 -8.640625 2.234375 -11.171875 C 2.234375 -13.660156 2.648438 -15.789062 3.484375 -17.5625 C 4.328125 -19.34375 5.507812 -20.703125 7.03125 -21.640625 C 8.550781 -22.585938 10.335938 -23.0625 12.390625 -23.0625 Z M 12.375 -19.859375 C 10.707031 -19.859375 9.363281 -19.3125 8.34375 -18.21875 C 7.332031 -17.132812 6.738281 -15.578125 6.5625 -13.546875 L 17.703125 -13.546875 C 17.691406 -14.796875 17.492188 -15.894531 17.109375 -16.84375 C 16.722656 -17.789062 16.140625 -18.53125 15.359375 -19.0625 C 14.585938 -19.59375 13.59375 -19.859375 12.375 -19.859375 Z M 12.375 -19.859375 "/></g></g></g><g fill="#000000" fill-opacity="1"><g transform="translate(295.800845, 194.526235)"><g><path d="M 14.40625 -23.0625 C 14.820312 -23.0625 15.269531 -23.035156 15.75 -22.984375 C 16.226562 -22.941406 16.640625 -22.890625 16.984375 -22.828125 L 16.546875 -18.984375 C 16.222656 -19.054688 15.84375 -19.117188 15.40625 -19.171875 C 14.976562 -19.234375 14.578125 -19.265625 14.203125 -19.265625 C 13.328125 -19.265625 12.488281 -19.097656 11.6875 -18.765625 C 10.894531 -18.441406 10.195312 -17.96875 9.59375 -17.34375 C 9 -16.71875 8.53125 -15.957031 8.1875 -15.0625 C 7.84375 -14.164062 7.671875 -13.140625 7.671875 -11.984375 L 7.671875 0 L 3.515625 0 L 3.515625 -22.65625 L 6.84375 -22.65625 L 7.34375 -18.5625 L 7.53125 -18.5625 C 7.988281 -19.382812 8.550781 -20.140625 9.21875 -20.828125 C 9.882812 -21.515625 10.648438 -22.054688 11.515625 -22.453125 C 12.390625 -22.859375 13.351562 -23.0625 14.40625 -23.0625 Z M 14.40625 -23.0625 "/></g></g></g><g fill="#000000" fill-opacity="1"><g transform="translate(150.074731, 214.513879)"><g><path d="M 6.34375 -12.59375 C 8.132812 -12.59375 9.503906 -12.082031 10.453125 -11.0625 C 11.398438 -10.050781 11.875 -8.597656 11.875 -6.703125 C 11.875 -4.503906 11.359375 -2.816406 10.328125 -1.640625 C 9.304688 -0.460938 7.832031 0.125 5.90625 0.125 C 5.363281 0.125 4.710938 0.113281 3.953125 0.09375 C 3.191406 0.0703125 2.488281 0.0390625 1.84375 0 L 1.8125 0 L 1.921875 -3.765625 L 1.8125 -12.515625 L 1.84375 -12.515625 Z M 6.15625 -1.1875 C 7.476562 -1.1875 8.492188 -1.617188 9.203125 -2.484375 C 9.921875 -3.359375 10.28125 -4.65625 10.28125 -6.375 C 10.28125 -9.65625 8.929688 -11.296875 6.234375 -11.296875 C 5.410156 -11.296875 4.46875 -11.269531 3.40625 -11.21875 L 3.328125 -3.90625 L 3.375 -1.3125 C 3.78125 -1.269531 4.265625 -1.238281 4.828125 -1.21875 C 5.398438 -1.195312 5.84375 -1.1875 6.15625 -1.1875 Z M 6.15625 -1.1875 "/></g></g></g><g fill="#000000" fill-opacity="1"><g transform="translate(165.970287, 214.513879)"><g><path d="M 2.265625 -4.53125 L 2.265625 -4.5 C 2.265625 -3.40625 2.507812 -2.5625 3 -1.96875 C 3.5 -1.382812 4.207031 -1.09375 5.125 -1.09375 C 5.570312 -1.09375 6.023438 -1.164062 6.484375 -1.3125 C 6.941406 -1.46875 7.359375 -1.679688 7.734375 -1.953125 L 7.890625 -1.84375 L 7.65625 -0.515625 C 6.75 -0.0664062 5.835938 0.15625 4.921875 0.15625 C 3.648438 0.15625 2.648438 -0.25 1.921875 -1.0625 C 1.191406 -1.875 0.828125 -2.992188 0.828125 -4.421875 C 0.828125 -5.847656 1.191406 -6.984375 1.921875 -7.828125 C 2.648438 -8.679688 3.628906 -9.109375 4.859375 -9.109375 C 5.898438 -9.109375 6.707031 -8.8125 7.28125 -8.21875 C 7.851562 -7.625 8.140625 -6.800781 8.140625 -5.75 C 8.140625 -5.394531 8.113281 -5.0625 8.0625 -4.75 L 7.875 -4.546875 Z M 4.859375 -8.015625 C 4.210938 -8.015625 3.671875 -7.800781 3.234375 -7.375 C 2.796875 -6.945312 2.503906 -6.351562 2.359375 -5.59375 L 6.6875 -5.671875 L 6.71875 -5.9375 C 6.71875 -6.601562 6.554688 -7.113281 6.234375 -7.46875 C 5.921875 -7.832031 5.460938 -8.015625 4.859375 -8.015625 Z M 4.859375 -8.015625 "/></g></g></g><g fill="#000000" fill-opacity="1"><g transform="translate(178.253913, 214.513879)"><g><path d="M 4 -9.078125 C 4.75 -9.078125 5.46875 -8.9375 6.15625 -8.65625 L 5.9375 -7.390625 L 5.703125 -7.328125 C 5.054688 -7.753906 4.429688 -7.96875 3.828125 -7.96875 C 3.390625 -7.96875 3.03125 -7.84375 2.75 -7.59375 C 2.476562 -7.351562 2.34375 -7.054688 2.34375 -6.703125 C 2.34375 -6.347656 2.484375 -6.0625 2.765625 -5.84375 C 3.046875 -5.632812 3.476562 -5.394531 4.0625 -5.125 C 4.570312 -4.882812 4.976562 -4.671875 5.28125 -4.484375 C 5.59375 -4.296875 5.859375 -4.046875 6.078125 -3.734375 C 6.296875 -3.421875 6.40625 -3.035156 6.40625 -2.578125 C 6.40625 -2.097656 6.28125 -1.648438 6.03125 -1.234375 C 5.789062 -0.816406 5.425781 -0.476562 4.9375 -0.21875 C 4.457031 0.03125 3.882812 0.15625 3.21875 0.15625 C 2.3125 0.15625 1.445312 -0.0546875 0.625 -0.484375 L 0.828125 -1.8125 L 1 -1.9375 C 1.363281 -1.625 1.753906 -1.378906 2.171875 -1.203125 C 2.597656 -1.035156 3 -0.953125 3.375 -0.953125 C 3.863281 -0.953125 4.253906 -1.085938 4.546875 -1.359375 C 4.847656 -1.628906 5 -1.945312 5 -2.3125 C 5 -2.65625 4.859375 -2.9375 4.578125 -3.15625 C 4.296875 -3.375 3.863281 -3.617188 3.28125 -3.890625 C 2.769531 -4.117188 2.359375 -4.328125 2.046875 -4.515625 C 1.734375 -4.710938 1.46875 -4.972656 1.25 -5.296875 C 1.03125 -5.617188 0.921875 -6.019531 0.921875 -6.5 C 0.921875 -7.257812 1.195312 -7.878906 1.75 -8.359375 C 2.300781 -8.835938 3.050781 -9.078125 4 -9.078125 Z M 4 -9.078125 "/></g></g></g><g fill="#000000" fill-opacity="1"><g transform="translate(188.76086, 214.513879)"><g><path d="M 4.515625 -9.109375 C 5.359375 -9.109375 6.023438 -8.898438 6.515625 -8.484375 C 7.003906 -8.066406 7.25 -7.492188 7.25 -6.765625 C 7.25 -6.535156 7.207031 -5.734375 7.125 -4.359375 C 7.050781 -2.972656 7.015625 -2.164062 7.015625 -1.9375 C 7.015625 -1.644531 7.054688 -1.441406 7.140625 -1.328125 C 7.234375 -1.222656 7.394531 -1.171875 7.625 -1.171875 C 7.8125 -1.171875 8.03125 -1.210938 8.28125 -1.296875 L 8.4375 -1.15625 L 8.28125 -0.28125 C 7.90625 -0.0507812 7.535156 0.0820312 7.171875 0.125 C 6.765625 0.0820312 6.441406 -0.0625 6.203125 -0.3125 C 5.960938 -0.5625 5.835938 -0.898438 5.828125 -1.328125 L 5.6875 -1.328125 C 4.976562 -0.609375 4.28125 -0.117188 3.59375 0.140625 C 2.71875 0.140625 2.035156 -0.078125 1.546875 -0.515625 C 1.066406 -0.953125 0.828125 -1.550781 0.828125 -2.3125 C 0.828125 -2.882812 0.976562 -3.335938 1.28125 -3.671875 C 1.582031 -4.015625 2.035156 -4.253906 2.640625 -4.390625 L 5.796875 -5.140625 L 5.828125 -6.40625 C 5.828125 -6.914062 5.691406 -7.304688 5.421875 -7.578125 C 5.148438 -7.847656 4.769531 -7.984375 4.28125 -7.984375 C 3.832031 -7.984375 3.382812 -7.878906 2.9375 -7.671875 C 2.5 -7.460938 2.03125 -7.140625 1.53125 -6.703125 L 1.375 -6.78125 L 1.171875 -7.890625 C 2.253906 -8.703125 3.367188 -9.109375 4.515625 -9.109375 Z M 2.953125 -3.453125 C 2.691406 -3.378906 2.5 -3.273438 2.375 -3.140625 C 2.257812 -3.003906 2.203125 -2.796875 2.203125 -2.515625 C 2.203125 -2.085938 2.320312 -1.753906 2.5625 -1.515625 C 2.8125 -1.273438 3.132812 -1.15625 3.53125 -1.15625 C 4.25 -1.15625 4.976562 -1.617188 5.71875 -2.546875 L 5.78125 -4.140625 Z M 2.953125 -3.453125 "/></g></g></g><g fill="#000000" fill-opacity="1"><g transform="translate(201.064018, 214.513879)"><g><path d="M 5.671875 -8.96875 C 5.828125 -8.96875 5.992188 -8.953125 6.171875 -8.921875 L 6.171875 -7.421875 L 6 -7.359375 C 5.78125 -7.429688 5.539062 -7.46875 5.28125 -7.46875 C 4.84375 -7.46875 4.445312 -7.289062 4.09375 -6.9375 C 3.738281 -6.59375 3.382812 -6.046875 3.03125 -5.296875 L 3.015625 -3.921875 L 3.109375 0 L 1.5625 0 L 1.65625 -3.796875 L 1.578125 -8.84375 L 3.046875 -8.984375 L 3.03125 -7.15625 L 3.140625 -7.15625 C 3.503906 -7.800781 3.90625 -8.265625 4.34375 -8.546875 C 4.789062 -8.828125 5.234375 -8.96875 5.671875 -8.96875 Z M 5.671875 -8.96875 "/></g></g></g><g fill="#000000" fill-opacity="1"><g transform="translate(210.653343, 214.513879)"><g><path d="M 5.671875 -8.96875 C 5.828125 -8.96875 5.992188 -8.953125 6.171875 -8.921875 L 6.171875 -7.421875 L 6 -7.359375 C 5.78125 -7.429688 5.539062 -7.46875 5.28125 -7.46875 C 4.84375 -7.46875 4.445312 -7.289062 4.09375 -6.9375 C 3.738281 -6.59375 3.382812 -6.046875 3.03125 -5.296875 L 3.015625 -3.921875 L 3.109375 0 L 1.5625 0 L 1.65625 -3.796875 L 1.578125 -8.84375 L 3.046875 -8.984375 L 3.03125 -7.15625 L 3.140625 -7.15625 C 3.503906 -7.800781 3.90625 -8.265625 4.34375 -8.546875 C 4.789062 -8.828125 5.234375 -8.96875 5.671875 -8.96875 Z M 5.671875 -8.96875 "/></g></g></g><g fill="#000000" fill-opacity="1"><g transform="translate(220.242668, 214.513879)"><g><path d="M 4.90625 -9.109375 C 6.113281 -9.109375 7.050781 -8.710938 7.71875 -7.921875 C 8.394531 -7.128906 8.734375 -6.019531 8.734375 -4.59375 C 8.734375 -3.082031 8.378906 -1.910156 7.671875 -1.078125 C 6.972656 -0.253906 5.972656 0.15625 4.671875 0.15625 C 3.441406 0.15625 2.492188 -0.234375 1.828125 -1.015625 C 1.160156 -1.804688 0.828125 -2.921875 0.828125 -4.359375 C 0.828125 -5.867188 1.179688 -7.035156 1.890625 -7.859375 C 2.597656 -8.691406 3.601562 -9.109375 4.90625 -9.109375 Z M 4.8125 -8.015625 C 3.988281 -8.015625 3.359375 -7.734375 2.921875 -7.171875 C 2.492188 -6.609375 2.28125 -5.785156 2.28125 -4.703125 C 2.28125 -3.453125 2.492188 -2.515625 2.921875 -1.890625 C 3.347656 -1.265625 3.960938 -0.953125 4.765625 -0.953125 C 5.585938 -0.953125 6.210938 -1.222656 6.640625 -1.765625 C 7.066406 -2.316406 7.28125 -3.140625 7.28125 -4.234375 C 7.28125 -5.472656 7.066406 -6.410156 6.640625 -7.046875 C 6.222656 -7.691406 5.613281 -8.015625 4.8125 -8.015625 Z M 4.8125 -8.015625 "/></g></g></g><g fill="#000000" fill-opacity="1"><g transform="translate(233.112014, 214.513879)"><g><path d="M 3.09375 -3.921875 L 3.1875 0 L 1.640625 0 L 1.765625 -3.8125 L 1.65625 -13.578125 L 3.203125 -13.71875 Z M 3.09375 -3.921875 "/></g></g></g><g fill="#000000" fill-opacity="1"><g transform="translate(241.217517, 214.513879)"><g><path d="M 3.09375 -3.921875 L 3.1875 0 L 1.640625 0 L 1.765625 -3.8125 L 1.65625 -13.578125 L 3.203125 -13.71875 Z M 3.09375 -3.921875 "/></g></g></g><g fill="#000000" fill-opacity="1"><g transform="translate(249.32302, 214.513879)"><g><path d="M 4.90625 -9.109375 C 6.113281 -9.109375 7.050781 -8.710938 7.71875 -7.921875 C 8.394531 -7.128906 8.734375 -6.019531 8.734375 -4.59375 C 8.734375 -3.082031 8.378906 -1.910156 7.671875 -1.078125 C 6.972656 -0.253906 5.972656 0.15625 4.671875 0.15625 C 3.441406 0.15625 2.492188 -0.234375 1.828125 -1.015625 C 1.160156 -1.804688 0.828125 -2.921875 0.828125 -4.359375 C 0.828125 -5.867188 1.179688 -7.035156 1.890625 -7.859375 C 2.597656 -8.691406 3.601562 -9.109375 4.90625 -9.109375 Z M 4.8125 -8.015625 C 3.988281 -8.015625 3.359375 -7.734375 2.921875 -7.171875 C 2.492188 -6.609375 2.28125 -5.785156 2.28125 -4.703125 C 2.28125 -3.453125 2.492188 -2.515625 2.921875 -1.890625 C 3.347656 -1.265625 3.960938 -0.953125 4.765625 -0.953125 C 5.585938 -0.953125 6.210938 -1.222656 6.640625 -1.765625 C 7.066406 -2.316406 7.28125 -3.140625 7.28125 -4.234375 C 7.28125 -5.472656 7.066406 -6.410156 6.640625 -7.046875 C 6.222656 -7.691406 5.613281 -8.015625 4.8125 -8.015625 Z M 4.8125 -8.015625 "/></g></g></g><g fill="#000000" fill-opacity="1"><g transform="translate(262.192366, 214.513879)"><g/></g></g><g fill="#000000" fill-opacity="1"><g transform="translate(268.696902, 214.513879)"><g><path d="M 2.03125 -7.859375 L 3.671875 -1.6875 L 3.796875 -1.6875 L 5.6875 -7.78125 L 5.984375 -8.953125 L 7.5 -8.953125 L 7.71875 -7.859375 L 9.359375 -1.6875 L 9.46875 -1.6875 L 11.375 -7.78125 L 11.65625 -8.953125 L 13.015625 -8.953125 L 10.0625 0 L 8.59375 0 L 6.71875 -6.9375 L 6.578125 -6.9375 L 4.421875 0 L 2.890625 0 L 0.390625 -8.90625 L 1.8125 -9 Z M 2.03125 -7.859375 "/></g></g></g><g fill="#000000" fill-opacity="1"><g transform="translate(285.139133, 214.513879)"><g><path d="M 2.265625 -4.53125 L 2.265625 -4.5 C 2.265625 -3.40625 2.507812 -2.5625 3 -1.96875 C 3.5 -1.382812 4.207031 -1.09375 5.125 -1.09375 C 5.570312 -1.09375 6.023438 -1.164062 6.484375 -1.3125 C 6.941406 -1.46875 7.359375 -1.679688 7.734375 -1.953125 L 7.890625 -1.84375 L 7.65625 -0.515625 C 6.75 -0.0664062 5.835938 0.15625 4.921875 0.15625 C 3.648438 0.15625 2.648438 -0.25 1.921875 -1.0625 C 1.191406 -1.875 0.828125 -2.992188 0.828125 -4.421875 C 0.828125 -5.847656 1.191406 -6.984375 1.921875 -7.828125 C 2.648438 -8.679688 3.628906 -9.109375 4.859375 -9.109375 C 5.898438 -9.109375 6.707031 -8.8125 7.28125 -8.21875 C 7.851562 -7.625 8.140625 -6.800781 8.140625 -5.75 C 8.140625 -5.394531 8.113281 -5.0625 8.0625 -4.75 L 7.875 -4.546875 Z M 4.859375 -8.015625 C 4.210938 -8.015625 3.671875 -7.800781 3.234375 -7.375 C 2.796875 -6.945312 2.503906 -6.351562 2.359375 -5.59375 L 6.6875 -5.671875 L 6.71875 -5.9375 C 6.71875 -6.601562 6.554688 -7.113281 6.234375 -7.46875 C 5.921875 -7.832031 5.460938 -8.015625 4.859375 -8.015625 Z M 4.859375 -8.015625 "/></g></g></g><g fill="#000000" fill-opacity="1"><g transform="translate(297.422757, 214.513879)"><g><path d="M 5.71875 -9.046875 C 6.851562 -9.046875 7.71875 -8.671875 8.3125 -7.921875 C 8.90625 -7.171875 9.203125 -6.113281 9.203125 -4.75 C 9.203125 -3.1875 8.820312 -1.976562 8.0625 -1.125 C 7.3125 -0.269531 6.257812 0.15625 4.90625 0.15625 C 4.28125 0.15625 3.640625 0.0078125 2.984375 -0.28125 L 1.921875 0.21875 L 1.640625 0.0625 L 1.765625 -3.75 L 1.65625 -13.578125 L 3.203125 -13.71875 L 3.140625 -7.71875 L 3.265625 -7.71875 C 3.703125 -8.082031 4.101562 -8.359375 4.46875 -8.546875 C 4.832031 -8.742188 5.25 -8.910156 5.71875 -9.046875 Z M 5.046875 -0.984375 C 5.878906 -0.984375 6.535156 -1.273438 7.015625 -1.859375 C 7.492188 -2.441406 7.734375 -3.304688 7.734375 -4.453125 C 7.734375 -5.503906 7.546875 -6.320312 7.171875 -6.90625 C 6.804688 -7.488281 6.28125 -7.78125 5.59375 -7.78125 C 5.1875 -7.78125 4.785156 -7.664062 4.390625 -7.4375 C 3.992188 -7.21875 3.570312 -6.875 3.125 -6.40625 L 3.109375 -3.921875 L 3.171875 -1.609375 C 3.796875 -1.191406 4.421875 -0.984375 5.046875 -0.984375 Z M 5.046875 -0.984375 "/></g></g></g></svg>