<svg xmlns="http://www.w3.org/2000/svg" xmlns:xlink="http://www.w3.org/1999/xlink" width="500" zoomAndPan="magnify" viewBox="0 0 375 374.999991" height="500" preserveAspectRatio="xMidYMid meet" version="1.0"><defs><clipPath id="26a742245d"><path d="M 128.589844 58 L 241 58 L 241 187.605469 L 128.589844 187.605469 Z M 128.589844 58 " clip-rule="nonzero"/></clipPath><clipPath id="a812c0bb26"><path d="M 184 155 L 241 155 L 241 187.605469 L 184 187.605469 Z M 184 155 " clip-rule="nonzero"/></clipPath><clipPath id="cfa62fad1f"><path d="M 128.589844 187 L 185 187 L 185 187.605469 L 128.589844 187.605469 Z M 128.589844 187 " clip-rule="nonzero"/></clipPath><clipPath id="4cdc46f89b"><path d="M 128.589844 187.003906 L 185.589844 187.003906 L 185.589844 188 L 128.589844 188 Z M 128.589844 187.003906 " clip-rule="nonzero"/></clipPath><clipPath id="87edf92074"><path d="M 184 187.003906 L 185.589844 187.003906 L 185.589844 220 L 184 220 Z M 184 187.003906 " clip-rule="nonzero"/></clipPath><clipPath id="751ed95553"><path d="M 128.589844 187.003906 L 185 187.003906 L 185 317.347656 L 128.589844 317.347656 Z M 128.589844 187.003906 " clip-rule="nonzero"/></clipPath><clipPath id="0a19af1bd0"><path d="M 184.675781 140.296875 L 246.046875 140.296875 L 246.046875 188 L 184.675781 188 Z M 184.675781 140.296875 " clip-rule="nonzero"/></clipPath><clipPath id="5b257af72f"><path d="M 184.675781 151 L 246.046875 151 L 246.046875 224 L 184.675781 224 Z M 184.675781 151 " clip-rule="nonzero"/></clipPath></defs><g clip-path="url(#26a742245d)"><path fill="#44abb6" d="M 240.765625 90.375 L 184.667969 58.007812 L 128.589844 90.40625 L 128.609375 155.167969 L 184.703125 187.539062 L 184.6875 122.769531 Z M 240.765625 90.375 " fill-opacity="1" fill-rule="nonzero"/></g><g clip-path="url(#a812c0bb26)"><path fill="#44abb6" d="M 240.785156 155.140625 L 184.703125 187.539062 L 240.800781 219.90625 Z M 240.785156 155.140625 " fill-opacity="1" fill-rule="nonzero"/></g><g clip-path="url(#cfa62fad1f)"><path fill="#44abb6" d="M 184.703125 187.539062 L 128.628906 219.933594 L 184.738281 317.0625 L 184.722656 252.300781 Z M 184.703125 187.539062 " fill-opacity="1" fill-rule="nonzero"/></g><g clip-path="url(#4cdc46f89b)"><path fill="#d9d9d9" d="M 240.765625 90.367188 L 184.667969 58 L 128.589844 90.398438 L 128.609375 155.164062 L 184.703125 187.53125 L 184.6875 122.765625 Z M 240.765625 90.367188 " fill-opacity="1" fill-rule="nonzero"/></g><g clip-path="url(#87edf92074)"><path fill="#d9d9d9" d="M 240.785156 155.132812 L 184.703125 187.53125 L 240.800781 219.898438 Z M 240.785156 155.132812 " fill-opacity="1" fill-rule="nonzero"/></g><g clip-path="url(#751ed95553)"><path fill="#d9d9d9" d="M 184.703125 187.53125 L 128.628906 219.929688 L 184.738281 317.058594 L 184.722656 252.296875 Z M 184.703125 187.53125 " fill-opacity="1" fill-rule="nonzero"/></g><g clip-path="url(#0a19af1bd0)"><path fill="#ffce2b" d="M 246.050781 80.113281 L 184.164062 44.265625 L 122.296875 80.144531 L 122.316406 151.875 L 184.203125 187.726562 L 184.183594 115.992188 Z M 246.050781 80.113281 " fill-opacity="1" fill-rule="nonzero"/></g><g clip-path="url(#5b257af72f)"><path fill="#ffce2b" d="M 246.070312 151.84375 L 184.203125 187.726562 L 246.09375 223.574219 Z M 246.070312 151.84375 " fill-opacity="1" fill-rule="nonzero"/></g></svg>